<?xml version="1.0" encoding="UTF-8" standalone="no"?>
<svg
   xmlns:dc="http://purl.org/dc/elements/1.1/"
   xmlns:cc="http://creativecommons.org/ns#"
   xmlns:rdf="http://www.w3.org/1999/02/22-rdf-syntax-ns#"
   xmlns:svg="http://www.w3.org/2000/svg"
   xmlns="http://www.w3.org/2000/svg"
   id="svg9719"
   version="1.1"
   viewBox="0 0 512 512"
   style="height: 512px; width: 512px;">
  <metadata
     id="metadata9725">
    <rdf:RDF>
      <cc:Work
         rdf:about="">
        <dc:format>image/svg+xml</dc:format>
        <dc:type
           rdf:resource="http://purl.org/dc/dcmitype/StillImage" />
        <dc:title></dc:title>
      </cc:Work>
    </rdf:RDF>
  </metadata>
  <defs
     id="defs9723" />
  <path
     id="path9713"
     fill-opacity="1"
     fill="#eeeeee"
     d="M0 0h512v512H0z" />
  <g
     id="g9717"
     transform="matrix(-1,0,0,1,511.97,0)"
     class="">
    <path
       style="fill:#222222;fill-opacity:1"
       id="path9715"
       d="m 354.2,15.5 -17.3,28 c 6.8,2.6 13.5,5.6 20.1,8.9 z m -243.1,2.8 c 0,0 15.5,36.8 29.4,69.6 C 152.4,77.3 165.4,68 178.9,60 Z m 136.5,1.9 -14,83.3 -17.7,-3 7,-41.1 c -27.8,10 -55.2,27 -77.7,48.7 l 41.3,10 -4.3,17.6 -64.5,-15.8 30.6,48.9 -15.2,9.7 -19.7,-31.5 c -18.48,29.6 -27.75,63.4 -22.1,97.7 l 4.46,27.2 -19.73,-19.4 C 55.87,232.6 39.36,224.7 21.27,222.9 c 19.47,48.2 23.93,111 17.78,161.6 20.01,-6.7 41.08,-18 50.41,-41.8 l 5.38,-13.8 9.76,11.1 c 0,0 6.5,7.5 17.2,18.4 l 41.5,-78.1 15.8,8.5 -34.3,64.9 68.3,-31 7.4,16.4 -81,36.7 c 7.1,6.8 15,14 23.5,21.2 10.2,8.7 21.3,17.1 32.5,24.7 l -0.5,-29 18.1,-0.3 1.2,77.3 40.8,-70.2 15.6,9 -22.9,39.4 c 6.9,1.9 13.5,2.9 19.4,2.6 38,-1.8 86.8,-17.7 129.3,-41.6 l -20.3,-14.2 10.3,-14.9 66.9,46.8 -29.7,-72.6 16.7,-6.8 9.7,23.6 c 8.4,-7.7 15.9,-15.7 22.2,-24 -2.1,-1.5 -5.4,-3.5 -9.5,-5.6 -4.7,-2.7 -10,-5.3 -14.6,-9 -2.2,-1.8 -4.4,-3.8 -6.1,-7.1 -1.6,-3.2 -2.1,-8.1 -0.6,-12 2.6,-6.2 7.1,-9.9 12,-13.5 4.8,-3.8 10.2,-7.2 15.4,-10.5 5.1,-3.3 9.9,-6.6 13,-9.3 3.1,-2.8 3.7,-4.9 3.7,-4.3 3.6,-49.8 -22.9,-106.8 -63.7,-151 -7.2,-7.8 -14.9,-15.2 -22.9,-22.1 l -13,72.7 -17.7,-3.2 10,-55.8 -53.9,48.2 -12,-13.4 69.3,-62.2 C 349.4,65.3 313.3,50.4 279.2,49.5 L 292.7,82.1 276,88.9 Z M 454,53.9 c 0,0 -21.9,17.3 -43.8,34.5 7.4,6.3 14.4,13 21.1,20 z m -426.97,71.4 49.72,60.9 c 3.12,-11.9 7.59,-23.3 13.19,-34.3 z m 463.67,5 c 0,0 -16.2,6.1 -31.3,11.9 3.3,4.6 6.4,9.3 9.4,14 z m -72.8,64 c 22.6,0.1 40.9,18.6 40.9,41.1 0,22.5 -18.4,40.9 -40.9,40.9 -22.5,0 -41,-18.5 -41,-41 0,-22.5 18.4,-40.9 41,-41 z m -111.2,6 67,21.1 -55.4,37.3 -10.1,-14.8 24.5,-16.6 -31.4,-9.7 z m -63.7,3.1 0.2,18 -80.2,0.4 67.3,47.4 -10.5,14.7 -113.2,-79.8 z m 174.9,9 c -12.8,-0.1 -23,10.1 -23,23 0,12.7 10.2,22.9 23,23 1.5,0 2.9,-0.2 4.3,-0.4 a 16,16 0 0 1 -13.1,-15.8 16,16 0 0 1 16,-16 16,16 0 0 1 15.6,12.5 c 0.1,-1.1 0.2,-2.2 0.2,-3.3 0,-12.9 -10.2,-23.1 -23,-23 z m -127.5,97.2 29.8,66.6 24.9,-54.2 16.2,7.5 L 320,419.9 274,317 Z m -160.6,82 -20.1,90.1 62.1,-54.5 c -7.1,-5.3 -13.9,-10.9 -20.4,-16.5 -8.1,-6.8 -15.2,-13.2 -21.6,-19.1 z m 279.3,31.8 c -9.9,5.7 -20.1,11 -30.5,15.7 l 45.7,54.8 z m -99.6,39.3 c -9.2,2 -18.2,3.6 -26.9,4.6 l 23.3,29.2 z" />
  </g>
</svg>
