<?xml version="1.0" encoding="UTF-8" standalone="no"?>
<svg
   xmlns:dc="http://purl.org/dc/elements/1.1/"
   xmlns:cc="http://creativecommons.org/ns#"
   xmlns:rdf="http://www.w3.org/1999/02/22-rdf-syntax-ns#"
   xmlns:svg="http://www.w3.org/2000/svg"
   xmlns="http://www.w3.org/2000/svg"
   id="svg1599"
   version="1.1"
   viewBox="0 0 512 512"
   style="height: 512px; width: 512px;">
  <metadata
     id="metadata1605">
    <rdf:RDF>
      <cc:Work
         rdf:about="">
        <dc:format>image/svg+xml</dc:format>
        <dc:type
           rdf:resource="http://purl.org/dc/dcmitype/StillImage" />
        <dc:title></dc:title>
      </cc:Work>
    </rdf:RDF>
  </metadata>
  <defs
     id="defs1603" />
  <path
     id="path1593"
     fill-opacity="1"
     fill="#eeeeee"
     d="M0 0h512v512H0z" />
  <g
     id="g1597"
     transform="matrix(-1,0,0,1,511.9997,0)"
     class="">
    <path
       style="fill:#222222;fill-opacity:1"
       id="path1595"
       d="m 413.38,71.32 c -2.692,0.027 -5.327,0.135 -7.884,0.319 -26.372,51.103 17.394,93.805 64.493,104.945 13.09,-17.97 20.194,-35.75 19.81,-52.19 l -13.342,9.173 -10.197,-14.832 19.385,-13.328 a 51.746,51.746 0 0 0 -2.67,-5.307 C 470.471,78.527 439.391,71.067 413.379,71.32 Z m -37.335,5.07 c -17.856,4.26 -35.236,10.617 -50.578,16.962 -15.406,6.371 -49.229,-21.262 -61.195,-9.934 -47.257,44.737 -30.373,63.14 -36.053,72.645 26.004,6.87 47.011,17.806 78.174,19.775 4.524,-6.931 8.111,-11.8 12.752,-17.982 l 46.873,0.31 -0.121,17.998 -37.573,-0.248 c -6.871,9.512 -12.176,18.044 -14.943,24.862 -3.133,7.72 -3.384,12.978 -1.998,16.851 7.927,14.29 31.59,18.35 45.008,20.778 l 30.031,-39.956 14.389,10.815 -36.608,48.707 c -16.36,-2.943 -34.12,-5.98 -47.841,-12.496 l -0.082,-0.041 c 6.302,17.447 14.137,34.826 18.359,51.228 a 647.74,647.74 0 0 0 13.004,-7.658 c 22.215,-13.45 5.493,46.972 53.295,3.69 5.713,-5.174 8.326,-49.352 10.16,-51.223 13.1,-13.364 30.148,-30.006 45.225,-47.686 -67.624,-8.885 -98.696,-65.168 -80.278,-117.396 z m 60.54,14.683 a 10.985,10.985 0 0 1 4.984,20.945 c -5.505,2.548 -12.033,0.152 -14.582,-5.352 -2.55,-5.505 -0.154,-12.034 5.351,-14.584 a 10.984,10.984 0 0 1 4.246,-1.01 z m -256.343,91.076 c -10.778,-0.103 -22.732,2.199 -29.648,8.23 -70.643,61.604 -16.27,86.406 -11.574,90.723 22.797,20.957 39.667,72.813 45.96,88.693 3.648,9.202 19.545,26.155 54.594,9.934 52.654,-20.53 29.41,-48.545 57.666,-62.912 -9.123,-50.356 -50.136,-103.254 -96.902,-130.684 -4.04,-2.37 -11.712,-3.904 -20.096,-3.984 z M 92.99,324.759 c -60.74,-0.071 -78.355,61.634 -68.033,92.634 39.549,51.777 96.597,6.736 124.514,-33.545 -10.297,-23.138 -22.417,-43.575 -40.1,-57.686 -5.776,-0.95 -11.233,-1.398 -16.38,-1.404 z" />
  </g>
</svg>
