<?xml version="1.0" encoding="UTF-8" standalone="no"?>
<svg
   xmlns:dc="http://purl.org/dc/elements/1.1/"
   xmlns:cc="http://creativecommons.org/ns#"
   xmlns:rdf="http://www.w3.org/1999/02/22-rdf-syntax-ns#"
   xmlns:svg="http://www.w3.org/2000/svg"
   xmlns="http://www.w3.org/2000/svg"
   xmlns:sodipodi="http://sodipodi.sourceforge.net/DTD/sodipodi-0.dtd"
   xmlns:inkscape="http://www.inkscape.org/namespaces/inkscape"
   style="height: 512px; width: 512px;"
   viewBox="0 0 512 512"
   version="1.1"
   id="svg5306"
   sodipodi:docname="dog-fish.svg"
   inkscape:version="0.92.5 (2060ec1f9f, 2020-04-08)">
  <metadata
     id="metadata5312">
    <rdf:RDF>
      <cc:Work
         rdf:about="">
        <dc:format>image/svg+xml</dc:format>
        <dc:type
           rdf:resource="http://purl.org/dc/dcmitype/StillImage" />
        <dc:title></dc:title>
      </cc:Work>
    </rdf:RDF>
  </metadata>
  <defs
     id="defs5310" />
  <sodipodi:namedview
     pagecolor="#ffffff"
     bordercolor="#666666"
     borderopacity="1"
     objecttolerance="10"
     gridtolerance="10"
     guidetolerance="10"
     inkscape:pageopacity="0"
     inkscape:pageshadow="2"
     inkscape:window-width="1362"
     inkscape:window-height="724"
     id="namedview5308"
     showgrid="false"
     inkscape:zoom="0.921875"
     inkscape:cx="315.36494"
     inkscape:cy="278.77645"
     inkscape:window-x="0"
     inkscape:window-y="290"
     inkscape:window-maximized="0"
     inkscape:current-layer="svg5306" />
  <path
     d="M0 0h512v512H0z"
     id="path5300"
     fill-opacity="1"
     fill="#000" />
  <g
     class=""
     transform="translate(0,0)"
     id="g5304"
     style="">
    <path
       d="M 322.76949,335.35424 C 339.66949,328.65424 352.7,317.1 352.7,317.1 c 21.1,2.8 48.3,7.7 55.1,19.2 3.9,6.8 -1.7,18.1 3.3,22.2 13.1,10.7 23.6,1.1 25.8,-6.1 2.2,-13.4 2.7,-25.7 -2,-36.6 -2.2,-5 -35.1,-23.9 -58.6,-31.1 27.3,4.6 70.9,9 72.4,14.9 2.6,9.8 -0.7,23.7 7.6,25.5 18.9,4.1 21.7,0.6 23.1,-15 0.9,-9.4 1.5,-17.8 -4.7,-25.6 -6.6,-8.3 -57,-21.6 -77.9,-25.6 24.9,-16.3 27.5,-19.5 36.3,-28.5 33.3,-4.5 43.7,-18.3 49.8,-39.7 10.8,-5.9 4.5,-19.7 -0.7,-20 -15.5,-0.7 -36.8,1 -51.3,-5 -5.4,-7.4 -14.9,-12.3 -25.4,-16.8 -3.3,-7.6 5.2,-25.5 -1.3,-32.6 -9.7,3.9 -21.9,23.3 -26.3,30.9 -1.8,-9.8 -8.6,-18.6 -13.9,-26.5 -23.3,28.4 -21.6,48.1 -35.8,79.6 -109.90571,70.51583 -134.39795,166.08952 -5.43051,135.05424 z M 310.7,214.8 c -40.8,18.5 -60.7,24.8 -93.7,35.5 1.3,43.7 3.5,56.8 13.2,90.4 21.3,3.9 48.7,3.3 70.8,-2.2 14.80635,-70.30585 -64.41085,-83.17372 9.7,-123.7 z m 94.9,-52.3 c 3.5,-0.1 7,4.2 8.1,10 1.2,6.2 -0.9,11.8 -4.6,12.5 -3.7,0.7 -7.6,-3.8 -8.8,-10 -1.1,-6.2 0.9,-11.7 4.6,-12.4 0.2,-0.1 0.5,-0.1 0.7,-0.1 z"
       id="path5302"
       inkscape:connector-curvature="0"
       style="fill:#ffffff;fill-opacity:1"
       sodipodi:nodetypes="cccccccccccccccccccccccccccccsccc" />
  </g>
  <g
     id="g5383"
     transform="translate(-317.04184,122.57948)">
    <g
       id="g5370"
       class=""
       transform="matrix(1.0788839,0,0,1.1317586,118.73691,72.054626)">
      <path
         id="path5368"
         d="m 369.9,56.74 c -25.2,14.39 -64.9,65.26 -78,86.66 -19.1,-5.2 -52.7,13.6 -67.5,36 20.3,-2.1 68.6,-6.1 50.9,33.7 34.9,-15.5 20.6,-41.9 27.4,-51.1 15.2,-20.4 112,-29.6 125.9,-41.7 C 516.03688,29.094605 458.10622,9.6656486 369.9,56.74 Z"
         inkscape:connector-curvature="0"
         style="fill:#ffffff;fill-opacity:1"
         sodipodi:nodetypes="ccccccc" />
    </g>
  </g>
</svg>
