<?xml version="1.0" encoding="UTF-8" standalone="no"?>
<svg
   xmlns:dc="http://purl.org/dc/elements/1.1/"
   xmlns:cc="http://creativecommons.org/ns#"
   xmlns:rdf="http://www.w3.org/1999/02/22-rdf-syntax-ns#"
   xmlns:svg="http://www.w3.org/2000/svg"
   xmlns="http://www.w3.org/2000/svg"
   id="svg4517"
   version="1.1"
   viewBox="0 0 512 512"
   style="height: 512px; width: 512px;">
  <metadata
     id="metadata4523">
    <rdf:RDF>
      <cc:Work
         rdf:about="">
        <dc:format>image/svg+xml</dc:format>
        <dc:type
           rdf:resource="http://purl.org/dc/dcmitype/StillImage" />
        <dc:title></dc:title>
      </cc:Work>
    </rdf:RDF>
  </metadata>
  <defs
     id="defs4521" />
  <path
     id="path4511"
     fill-opacity="1"
     fill="#eeeeee"
     d="M0 0h512v512H0z" />
  <g
     id="g4515"
     transform="matrix(-1,0,0,1,509.41661,0)"
     class="">
    <path
       style="fill:#222222;fill-opacity:1"
       id="path4513"
       d="m 156.6,22.57 c -1.6,2.52 -3.2,6.01 -4.4,10.72 -2.5,10.01 -3.3,23.68 -1.5,37.39 1.7,13.7 5.9,27.45 12.4,38.02 1.6,2.5 3.3,4.9 5.2,7.2 14.8,-5.4 29.9,-12.4 45.5,-18.24 23.4,-8.76 48.6,-15.05 75,-7.31 6.7,1.97 13.1,5.05 18.9,9.1 L 333,93.29 c -9.7,-15.71 -28.7,-35.45 -48.9,-42.52 -19.5,-0.38 -39.5,1.54 -56.3,1.13 -24.6,-0.7 -53,-6.67 -71.2,-29.33 z m 195,75.69 c 4.2,17.64 9.2,34.14 17.2,47.54 9.3,15.7 22.1,27.6 43.8,34.1 14.9,-22.4 26,-43.2 33.7,-59.8 4.3,-10.7 9.6,-21.64 11.7,-32.38 -8.4,-2.72 -18.7,-3.61 -26.1,-3.84 -29.3,0.9 -58.3,6.49 -80.3,14.38 z m 40.5,0.26 c 10,0 18.1,8.38 18.1,18.78 0,10.3 -8.1,18.7 -18.1,18.7 -10,0 -18.2,-8.4 -18.2,-18.7 0,-10.4 8.2,-18.78 18.2,-18.78 z m -127.9,6.28 c -14.4,0 -28.9,4 -44,9.7 -22.1,8.3 -45,20.1 -69.7,25.5 h -0.1 c -26.6,5.7 -47.8,3.4 -66.26,-3.2 -11.18,-3.9 -21.3,-9.4 -31.29,-15.2 3.22,9.4 7.2,19.2 11.82,29 32.69,12.7 72.33,10.2 101.13,10 l 0.2,18 c -23.4,0.2 -56.9,2.6 -89.56,-5.5 4.29,7.5 8.93,14.7 13.89,21.8 32.07,5.1 65.67,4.5 94.77,-2.4 l 4.3,17.4 c -22.6,5.6 -50.7,9.9 -82.5,5.8 6.8,7.3 13.2,13.6 20.5,19.2 32.3,-1.4 56.2,-7 69,-16.3 l 10.6,14.5 c -13,9.4 -30.3,14.8 -51.6,17.6 7.1,2.4 14.2,3.7 21.2,3.7 19,0 39.1,-9 60.2,-33.9 l 13.7,11.7 c -23.4,27.6 -49,40.2 -73.8,40.2 -6.1,0 -12,-0.7 -17.8,-2 -12,19.3 -21.1,36.2 -30.7,53.7 l -5,0.4 c -16.9,1.1 -26.42,5.8 -35.21,13.3 -8.78,7.4 -16.63,18.5 -27.31,31.7 -1.55,1.9 -3.84,7.5 -5.67,15 9.13,-5.9 18.09,-10 27.12,-12.9 l 5.59,17.1 c -12.05,3.9 -23.15,9.6 -36.02,20.8 -0.23,4.5 -0.32,9.1 -0.27,13.8 10.08,-6.9 20.85,-13.3 33.18,-17.1 l 5.22,17.2 c -12.39,3.8 -24.44,12.1 -37.13,21 0.69,6.1 1.65,12.1 2.87,17.5 8.1,-10 16.81,-19.7 27.63,-26.5 l 9.55,15.3 c -9.96,6.2 -19.81,18.3 -30.08,31.1 2.68,4.6 5.41,7 7.41,7.6 0.16,0 0.31,0 0.8,-0.3 1.31,-0.6 3.46,-2.1 5.91,-4.2 4.9,-4.3 11.05,-11.2 17.43,-19 12.78,-15.8 26.48,-35.6 37.28,-49.4 l 6.9,-8.8 7.1,8.7 c 11.8,14.3 28.9,30.9 45.3,41.7 8.2,5.4 16.2,9.3 22.9,11 6.6,1.7 11.3,1.2 14.8,-0.7 1.1,-2.2 1.3,-5.5 1.3,-7.8 -8.8,-3 -18,-4.9 -27.3,-5.5 l 1.4,-18 c 7.8,0.6 15.5,1.9 23,3.9 -0.7,-3.2 -1.6,-6.3 -2.6,-9.4 -11.9,-2.5 -24.8,-2.6 -38.2,-3.7 l 1.4,-17.9 c 9.1,0.7 19.1,0.8 29.4,2.1 -1.6,-3.6 -3.3,-7.1 -5.1,-10.4 -12.9,-2.6 -28.6,-1.5 -45,-0.8 l -0.8,-18 c 12.2,-0.5 22.8,-1.2 33.9,-0.8 -3.3,-4.6 -6.5,-8.1 -9.1,-10.1 -5.3,-3.3 -23.4,0.4 -24.2,-6.3 9.5,-4.5 16.3,-5.9 26.6,-9.5 94.5,-31.9 162.4,-97.4 205.9,-156.8 1,-1.4 2,-2.8 3,-4.1 -22.8,-8.4 -38.4,-22.9 -48.7,-40.3 -9.1,-15.2 -14.5,-32.4 -18.8,-49.9 -4.6,2.1 -9.2,4.3 -13.8,6.6 9.1,11.2 14.5,25.1 15.2,38.9 0.7,12.9 -2.7,26 -11.4,36.5 -8.6,10.4 -22.2,17.7 -39.8,19.8 L 282.7,189 c 14,-1.6 22.6,-6.8 28.1,-13.4 5.4,-6.5 7.7,-15 7.2,-24.1 -0.9,-18.2 -13.9,-37.9 -34.3,-43.9 -6.7,-1.6 -13.6,-2.7 -19.5,-2.8 z m 107.1,79 2.4,17.9 c 0,0 -4.8,0.6 -10.4,2.1 -5.6,1.4 -11.9,4.5 -12.7,5.3 -2.9,2.8 -4.2,8.9 -5.4,17.4 -1.1,8.5 -2,19.5 -10.6,27.8 -12.1,11.8 -28,14.3 -42.2,16.3 -14.3,2 -27.3,3.7 -36.1,9.4 -7.3,4.8 -18.5,16.9 -27,27.6 -8.5,10.7 -14.7,19.8 -14.7,19.8 l -14.9,-10.1 c 0,0 6.6,-9.7 15.6,-20.9 8.9,-11.3 19.9,-24.1 31.2,-31.4 13.8,-9 29.6,-10.3 43.3,-12.2 13.8,-1.9 25.1,-4.4 32.3,-11.4 2.8,-2.8 4.2,-8.8 5.3,-17.2 1.1,-8.5 2,-19.4 10.5,-27.9 6.2,-6.3 14.1,-8.2 20.9,-9.9 6.7,-1.8 12.5,-2.6 12.5,-2.6 z" />
  </g>
</svg>
