<?xml version="1.0" encoding="UTF-8" standalone="no"?>
<svg
   xmlns:dc="http://purl.org/dc/elements/1.1/"
   xmlns:cc="http://creativecommons.org/ns#"
   xmlns:rdf="http://www.w3.org/1999/02/22-rdf-syntax-ns#"
   xmlns:svg="http://www.w3.org/2000/svg"
   xmlns="http://www.w3.org/2000/svg"
   id="svg6420"
   version="1.1"
   viewBox="0 0 512 512"
   style="height: 512px; width: 512px;">
  <metadata
     id="metadata6426">
    <rdf:RDF>
      <cc:Work
         rdf:about="">
        <dc:format>image/svg+xml</dc:format>
        <dc:type
           rdf:resource="http://purl.org/dc/dcmitype/StillImage" />
        <dc:title></dc:title>
      </cc:Work>
    </rdf:RDF>
  </metadata>
  <defs
     id="defs6424" />
  <path
     id="path5456"
     fill-opacity="1"
     fill="#000"
     d="M0 0h512v512H0z" />
  <g
     id="g5460"
     transform="translate(0,0)"
     style=""
     class="">
    <path
       style="fill:#ffffff;fill-opacity:1"
       id="path5458"
       d="m 256,25 c 21,0 34.936,10.482 53.63,20.867 17.717,9.843 39.99,18.284 71.4,11.87 14.906,14.9 30.05,29.803 46.2,39.896 13.216,8.26 28.067,13.18 42.88,10.855 -4.25,33.44 -24.556,66.15 -45.784,83.272 -55.98,-18.552 -112.1,-27.832 -168.22,-27.832 -56.172,0 -112.343,9.297 -168.374,27.883 -21.25,-17.108 -41.59,-49.85 -45.843,-83.322 14.81,2.326 29.664,-2.596 42.88,-10.855 16.15,-10.093 31.292,-24.995 46.2,-39.895 31.407,6.413 53.683,-2.028 71.4,-11.87 C 221.065,35.48 235,25 256,25 Z m 0.105,156.86 c 52.79,0 105.584,8.63 158.504,25.734 2.18,13.47 -1.51,23.48 -9.448,32.736 -8.86,10.333 -23.732,19.103 -41.36,25.71 -35.26,13.218 -80.983,17.896 -107.697,17.896 -26.713,0 -72.434,-4.678 -107.693,-17.895 -17.63,-6.607 -32.5,-15.377 -41.36,-25.71 -7.94,-9.257 -11.632,-19.265 -9.45,-32.736 52.92,-17.105 105.713,-25.735 158.503,-25.735 z m 173.227,57.146 c 9.82,2.382 26.932,7.775 30.006,16.994 8.402,25.197 -16.92,63.795 -36.07,88.15 5.276,-22.004 8.12,-45.41 8.12,-69.68 0,-12.058 -0.706,-23.9 -2.056,-35.464 z m -346.45,0 c -1.371734,11.77119 -2.058225,23.61215 -2.056,35.463 0,24.27 2.843,47.676 8.12,69.68 -19.15,-24.355 -44.473,-62.953 -36.07,-88.15 3.073,-9.22 20.186,-14.612 30.005,-16.994 z m 330.03,19.172 c 0.305,5.377 0.475,10.806 0.475,16.29 0,59.374 -18.13,112.958 -46.903,151.305 -28.772,38.347 -67.703,61.313 -110.38,61.313 -42.674,0 -81.606,-22.966 -110.377,-61.313 -28.772,-38.347 -46.9,-91.93 -46.9,-151.304 0,-5.486 0.17,-10.915 0.474,-16.292 8.2,7.656 18.216,13.868 29.235,19.03 -4.27,18.2 0.266,40.838 12.098,52.665 21.774,21.765 70.605,21.765 92.38,0 6.744,-6.743 9.637,-17.487 9.255,-28.268 4.934,0.216 9.6,0.33 13.837,0.33 4.238,0 8.905,-0.114 13.84,-0.33 -0.383,10.78 2.51,21.525 9.256,28.268 21.775,21.765 70.604,21.765 92.378,0 11.832,-11.827 16.368,-34.462 12.098,-52.662 11.02,-5.162 21.038,-11.376 29.236,-19.032 z M 256.105,376.043 c -23.094,36.936 -69.282,41.553 -92.376,41.553 23.093,18.468 92.375,18.468 92.375,0 0,18.468 69.285,18.468 92.38,0 -23.095,0 -69.285,-4.617 -92.38,-41.553 z" />
  </g>
  <g
     transform="translate(594.42038,-55.984856)"
     id="g5539">
    <g
       transform="matrix(0.51417673,0,0,0.49614179,-468.10323,-2.954327)"
       class=""
       id="g5526">
      <path
         style="fill:#000001;fill-opacity:1"
         d="m 96,400 64.4,-48.2 c 33.3,15.3 71.8,34.2 135.7,34.2 40,0 120,-26 120,-45.9 0,-20.1 -80,-46 -120,-46 -63.9,0 -102.4,18.8 -135.7,34.1 L 96,280 Z"
         id="path5524" />
    </g>
  </g>
</svg>
