<?xml version="1.0" encoding="UTF-8" standalone="no"?>
<svg
   xmlns:dc="http://purl.org/dc/elements/1.1/"
   xmlns:cc="http://creativecommons.org/ns#"
   xmlns:rdf="http://www.w3.org/1999/02/22-rdf-syntax-ns#"
   xmlns:svg="http://www.w3.org/2000/svg"
   xmlns="http://www.w3.org/2000/svg"
   id="svg5666"
   version="1.1"
   viewBox="0 0 512 512"
   style="height: 512px; width: 512px;">
  <metadata
     id="metadata5672">
    <rdf:RDF>
      <cc:Work
         rdf:about="">
        <dc:format>image/svg+xml</dc:format>
        <dc:type
           rdf:resource="http://purl.org/dc/dcmitype/StillImage" />
        <dc:title></dc:title>
      </cc:Work>
    </rdf:RDF>
  </metadata>
  <defs
     id="defs5670" />
  <path
     id="path5660"
     fill-opacity="1"
     fill="#eeeeee"
     d="M0 0h512v512H0z" />
  <g
     id="g5664"
     transform="translate(0,0)"
     style=""
     class="">
    <path
       style="fill:#5a7d8b"
       id="path6235"
       d="m 106.531,32.647 a 8,8 0 0 0 -8,8 8,8 0 0 0 8,8 8,8 0 0 0 8,-8 8,8 0 0 0 -8,-8 z" />
    <path
       style="fill:#5a7d8b"
       id="path6233"
       d="m 127,54.11 a 16,16 0 0 0 -16,16 16,16 0 0 0 16,16 16,16 0 0 0 16,-16 16,16 0 0 0 -16,-16 z" />
    <path
       style="fill:#5a7d8b"
       id="path6231"
       d="m 87,86.11 a 8,8 0 0 0 -8,8 8,8 0 0 0 8,8 8,8 0 0 0 8,-8 8,8 0 0 0 -8,-8 z" />
    <path
       style="fill:#222222"
       id="path6229"
       d="M 253.094,128.93 152,176.108 v 19.66 l 83.275,-37.851 7.45,16.386 L 152,215.542 v 37.054 l -66,22 V 245.542 L 66.725,254.303 59.275,237.917 86,225.768 V 206.907 L 24,235.84 v 69.943 l 74.156,59.326 H 150 v -80 h 113.973 l 29.06,-116.24 z" />
    <path
       style="fill:#222222"
       id="path6227"
       d="m 134,130.596 -30,10 v 109.026 l 30,-10 z" />
    <path
       style="fill:#5a7d8b"
       id="path6225"
       d="m 359,165.11 c -17.293,0 -33.797,3.427 -48.88,9.625 l -5.66,22.633 c 16.099,-9.077 34.701,-14.258 54.54,-14.258 61.41,0 111,49.59 111,111 0,33.888 -15.104,64.172 -38.959,84.514 a 125.02,125.02 0 0 1 15.424,10.22 C 471.989,365.261 488,331.524 488,294.11 c 0,-71.138 -57.862,-129 -129,-129 z" />
    <path
       style="fill:#5a7d8b"
       id="path6223"
       d="m 357.957,200.608 c -17.968,0.19 -36.383,5.944 -51.336,17.76 80.719,-7.96 130.37,44.148 138.711,112.021 17.152,-52.744 -8.539,-94.772 -43.545,-117.64 -12.47,-8.147 -27.976,-12.309 -43.83,-12.14 z" />
    <path
       style="fill:#222222"
       id="path6221"
       d="m 168,303.11 v 62 h 121.707 l -24.8,-62 z" />
    <path
       style="fill:#222222"
       id="path6219"
       d="m 72.305,383.11 c 0.58,16.023 2.647,30.257 6.623,41.906 l 0.064,-0.28 c 107.631,24.527 244.498,31.838 379.018,2.923 a 62.707,62.707 0 0 0 -4.094,-6.121 C 439.047,401.874 408.386,383.11 383,383.11 Z" />
    <path
       style="fill:#222222"
       id="path5662"
       d="m 463.57,444.878 c -132.013,28.693 -265.575,23.175 -373.658,0.642 5.962,7.311 13.655,12.625 23.934,16.051 21.94,7.313 74.574,15.426 136.246,17.34 61.671,1.913 133.028,-2.11 194.724,-17.533 13.919,-3.48 17.604,-8.493 18.588,-14.479 0.104,-0.633 0.153,-1.313 0.166,-2.021 z" />
  </g>
</svg>
