<?xml version="1.0" encoding="UTF-8" standalone="no"?>
<svg
   xmlns:dc="http://purl.org/dc/elements/1.1/"
   xmlns:cc="http://creativecommons.org/ns#"
   xmlns:rdf="http://www.w3.org/1999/02/22-rdf-syntax-ns#"
   xmlns:svg="http://www.w3.org/2000/svg"
   xmlns="http://www.w3.org/2000/svg"
   id="svg3771"
   version="1.1"
   viewBox="0 0 512 512"
   style="height: 512px; width: 512px;">
  <metadata
     id="metadata3777">
    <rdf:RDF>
      <cc:Work
         rdf:about="">
        <dc:format>image/svg+xml</dc:format>
        <dc:type
           rdf:resource="http://purl.org/dc/dcmitype/StillImage" />
        <dc:title></dc:title>
      </cc:Work>
    </rdf:RDF>
  </metadata>
  <defs
     id="defs3775" />
  <path
     fill="#000"
     fill-opacity="1"
     id="path3765"
     d="M0 0h512v512H0z" />
  <g
     style=""
     id="g3769"
     transform="translate(0,0)"
     class="">
    <path
       fill="#fff"
       fill-opacity="1"
       id="path3767"
       transform="translate(512, 0) scale(-1, 1) rotate(0, 256, 256) skewX(0) skewY(0)"
       d="M257.97 20.22C150.394 88.557 72.1 275.18 69.874 494.374h375.188c-2.2-219.194-79.52-405.817-187.094-474.156zm-18.845 163.06l18.344 36.282 18.342-36.28c9.99 2.326 19.72 6.537 29.063 12.437l4.156 48.56 20.095-28.624c7.938 8.123 15.48 17.558 22.594 28.156L345.436 279l18.375-15.344c24.39 44.295 42.05 103.6 49.532 170.78-10.036-32.144-26.553-60.393-47.625-82.342l4-35.813L344.093 333c-6.098-4.53-12.452-8.595-19.03-12.156l-3.345-40.97-26.314 28.876c-7.31-2.074-14.792-3.58-22.437-4.438l-15.5-33.25-15.5 33.282c-8.14.916-16.12 2.522-23.876 4.812l-24.875-27.28-3.157 38.874c-6.645 3.585-13.065 7.68-19.22 12.25l-25.624-16.72 4.03 35.814c-21.08 21.95-37.618 50.19-47.656 82.344 7.482-67.188 25.17-126.485 49.562-170.782L169.5 279l-6.28-35.188c7.37-10.983 15.213-20.71 23.468-29.03l19.25 27.374 3.937-46.312c9.4-5.963 19.193-10.22 29.25-12.563z" />
  </g>
  <path
     id="path3781"
     d="M 489.30422,41.127844 C 485.16202,225.92708 504.74664,199.7574 443.64896,180.55747 382.55128,161.35755 254.32441,150.86323 254.32441,150.86323 L 254.05414,20.24385 c 100.35713,2.474392 240.83032,-10.19579 235.25008,20.883994 z"
     style="fill:#ffffff;fill-opacity:1;stroke:#ffffff;stroke-width:1.18006361px;stroke-linecap:butt;stroke-linejoin:miter;stroke-opacity:1" />
  <path
     style="fill:#ffffff;fill-opacity:1;stroke:#ffffff;stroke-width:1.18006361px;stroke-linecap:butt;stroke-linejoin:miter;stroke-opacity:1"
     d="M 19.3446,41.127845 C 23.4868,225.92708 3.90218,199.7574 64.99986,180.55747 126.09754,161.35755 254.32441,150.86323 254.32441,150.86323 L 254.59468,20.243851 C 154.23755,22.718243 13.76436,10.048061 19.3446,41.127845 Z"
     id="path4594" />
</svg>
