<?xml version="1.0" encoding="UTF-8" standalone="no"?>
<svg
   xmlns:dc="http://purl.org/dc/elements/1.1/"
   xmlns:cc="http://creativecommons.org/ns#"
   xmlns:rdf="http://www.w3.org/1999/02/22-rdf-syntax-ns#"
   xmlns:svg="http://www.w3.org/2000/svg"
   xmlns="http://www.w3.org/2000/svg"
   id="svg4296"
   version="1.1"
   viewBox="0 0 512 512"
   style="height: 512px; width: 512px;">
  <metadata
     id="metadata4302">
    <rdf:RDF>
      <cc:Work
         rdf:about="">
        <dc:format>image/svg+xml</dc:format>
        <dc:type
           rdf:resource="http://purl.org/dc/dcmitype/StillImage" />
        <dc:title></dc:title>
      </cc:Work>
    </rdf:RDF>
  </metadata>
  <defs
     id="defs4300" />
  <path
     id="path4290"
     fill-opacity="1"
     fill="#eeeeee"
     d="M0 0h512v512H0z" />
  <g
     style=""
     id="g4294"
     transform="translate(0,0)"
     class="">
    <path
       fill="#222222"
       fill-opacity="1"
       id="path4292"
       d="M240.03 35.938c-1.08.01-2.168.062-3.25.124-8.644.502-17.16 2.8-22.5 5.97-5.336 3.167-7.018 5.72-6.81 9.593v.25l.78 28.156 59.97-1.28-.876-31.844c-.148-3.014-1.806-5.15-7.47-7.593C255.63 37.48 249.63 36.27 243.25 36c-1.063-.045-2.138-.074-3.22-.063zm224.94 57.218L33.593 102.53l1.375 62 154.655 4.064-148.156 9.72-2.907 98.81 1.406.313 8.06 1.844-.843 8.22-6.906 67.47 429.533-9.283L464.219 283l-140.376-3.656 139.22-9.156-8.877-99.407-138.875-3.624 151.032-9.937-1.375-64.064zM276.31 368.562l-59.875 1.282L220 495.78h59.844l-3.53-127.217z" />
  </g>
  <g
     id="g3685"
     class=""
     transform="matrix(0.375,0,0,0.375,149.33874,121.07196)">
    <path
       id="path3683"
       d="m 308.84662,18.25 c -3.91,19.165 0.907,37.814 14.72,55.5 15.853,20.302 44.172,38.85 84.81,51.188 34.84,10.577 58.396,29.203 71,50.937 12.606,21.734 14.02,46.364 5.72,67.5 -14.824,37.743 -60.4,62.92 -121.28,47.438 -12.883,-4.053 -27.47,-10 -38.97,-17.188 -2.51,-1.568 -4.828,-3.18 -6.938,-4.813 2.885,-2.7 5.43,-5.853 7.5,-9.437 0.683,-1.182 1.297,-2.385 1.844,-3.594 13.048,8.047 29.743,16.232 51.532,19.376 47.934,8.963 78.497,-12.01 88.938,-38.594 6.257,-15.93 5.374,-34.287 -4.5,-51.312 -9.874,-17.025 -29.002,-32.94 -60.28,-42.438 -43.283,-13.14 -75.046,-33.17 -94.095,-57.562 -15.77,-20.194 -22.4,-43.702 -18.906,-67 h 18.905 z m -17.844,151.47 c 0.788,0 1.588,0 2.376,0.03 11.464,0.415 23.03,3.582 33.656,9.72 26.423,15.252 39.106,44.164 34.25,72.25 -12.21,-4.294 -22.097,-10.274 -30.906,-16.157 -1.418,-11.078 -7.93,-21.27 -18.72,-27.5 -6.337,-3.66 -13.285,-5.464 -20.124,-5.5 -13.055,-0.07 -25.668,6.304 -32.656,18.406 -10.648,18.44 -4.066,42.974 14.375,53.624 8.564,4.945 18.115,5.99 26.97,3.844 4.427,4.08 9.466,7.747 14.72,11.03 5.286,3.306 10.918,6.29 16.655,8.97 -15.17,10.68 -33.97,15.17 -52.25,12.125 h -0.03 l -72.376,125.406 c -17.27,29.907 -42.53,48.207 -68.783,54.467 -26.25,6.26 -52.739997,1.16 -74.249997,-12.03 -43.02,-26.38 -66.36,-87.515 -33.53,-144.376 l 16.53,-28.655 0.157,-0.28 c 19.615,-36.032 45.045,-60.504 75.343997,-75.283 -12.778,45.916 -17.4,91.832 -16.094,137.75 l -28.687997,-34 -4.906,-3 -10.501,18.159 c -21.954,38.025 -3.593,72.716 21.125,87.874 35.703997,16.537 62.566997,12.018 84.624997,-23.125 l 71.78,-124.376 c -20.72,-22.425 -25.7,-57.052 -9.78,-84.625 13,-22.517 36.637,-34.833 61.03,-34.75 z"
       style="fill:#eeeeee;fill-opacity:1" />
  </g>
  <path
     id="path4878"
     d="M 238.69746,116.24453 A 106.77966,106.77966 0 0 0 136.79415,226.13394 106.77966,106.77966 0 0 0 245.1352,329.68301 106.77966,106.77966 0 0 0 350.30439,222.91592 l -0.19311,-6.43603 A 106.77966,106.77966 0 0 0 238.69746,116.24453 Z m 0.60328,13.3335 a 93.432203,93.432203 0 0 1 97.4873,87.70679 l 0.16919,5.6311 a 93.432203,93.432203 0 0 1 -92.02368,93.42163 93.432203,93.432203 0 0 1 -94.79737,-90.60522 93.432203,93.432203 0 0 1 89.16456,-96.1543 z"
     style="fill:#de4949;fill-opacity:1;stroke:none;stroke-width:0.875;stroke-opacity:1" />
  <rect
     transform="rotate(-45)"
     y="235.4151"
     x="-6.5291977"
     height="197.53267"
     width="32.922112"
     id="rect4903"
     style="fill:#de4949;fill-opacity:1;stroke:none;stroke-width:0.99701631;stroke-opacity:1" />
</svg>
