<?xml version="1.0" encoding="UTF-8" standalone="no"?>
<svg
   xmlns:dc="http://purl.org/dc/elements/1.1/"
   xmlns:cc="http://creativecommons.org/ns#"
   xmlns:rdf="http://www.w3.org/1999/02/22-rdf-syntax-ns#"
   xmlns:svg="http://www.w3.org/2000/svg"
   xmlns="http://www.w3.org/2000/svg"
   id="svg5982"
   version="1.1"
   viewBox="0 0 512 512"
   style="height: 512px; width: 512px;">
  <metadata
     id="metadata5988">
    <rdf:RDF>
      <cc:Work
         rdf:about="">
        <dc:format>image/svg+xml</dc:format>
        <dc:type
           rdf:resource="http://purl.org/dc/dcmitype/StillImage" />
        <dc:title></dc:title>
      </cc:Work>
    </rdf:RDF>
  </metadata>
  <defs
     id="defs5986" />
  <path
     id="path5976"
     fill-opacity="1"
     fill="#eeeeee"
     d="M0 0h512v512H0z" />
  <g
     id="g5980"
     transform="matrix(-1,0,0,1,511.9717,0)"
     class="">
    <path
       style="fill:#222222;fill-opacity:1"
       id="path5978"
       d="M 376.4,19.14 C 352,18.97 320.9,25.68 287.4,32.16 254,38.64 218.5,44.96 187.2,44.72 156,44.48 129.8,37.81 112.6,19.89 L 99.67,32.35 C 128,59.39 166,63.49 200.2,62.49 191.8,63.97 183,65.08 174.1,65.7 137.4,68.24 98.87,63.09 81.52,52.55 L 72.18,67.93 C 96.57,82.72 136.4,86.36 175.3,83.65 213.9,80.97 251,72.63 270,53.75 c 7.1,-1.28 14.1,-2.59 20.9,-3.92 33.6,-6.51 64.5,-12.84 85.3,-12.69 10.5,0.1 18,1.91 21.9,4.57 2.3,1.53 3.9,3.15 4.8,5.78 h 18.3 c -1.7,-8.79 -6.3,-16.19 -13,-20.74 -8.8,-5.86 -19.6,-7.52 -31.8,-7.61 z m 51.7,46.1 c -44.9,-0.24 -134,8.46 -209.4,29.2 1.1,-0.11 2.2,-0.17 3.3,-0.17 18.1,0 33,14.93 33,33.03 0,18.1 -14.9,33 -33,33 -18.1,0 -33,-14.9 -33,-33 0,-13 7.7,-24.3 18.7,-29.71 -27.9,8.31 -53.4,18.31 -73.4,30.21 51.7,27.3 77.4,63 99.9,97.3 73.4,-20.4 119.8,-42.8 174.9,-95.9 -24.1,5.9 -35.3,6.5 -56.2,5.7 28.1,-10.5 97,-43.23 118.7,-55.9 -29.4,2.28 -74.5,12.38 -100.9,18.44 14.9,-13.43 51.3,-28.42 64.4,-32.08 -2.2,-0.1 -4.5,-0.1 -7,-0.12 z M 222,112.3 c -8.4,0 -15,6.6 -15,15 0,8.4 6.6,15 15,15 8.4,0 15,-6.6 15,-15 0,-8.4 -6.6,-15 -15,-15 z m -120.5,20.2 c -17.58,26.8 -31.42,52.3 -41.44,76.2 25.1,34.2 57.14,63.2 115.54,80.3 10,-17.5 24.4,-35.6 43,-54.6 -25.3,-38.9 -51.8,-75.5 -117.1,-101.9 z m -48.93,96 c -12.03,35.4 -15.18,67.4 -9.37,96.1 32.35,23.5 59.1,38.1 115.5,25.9 -1,-14.5 1.9,-29.6 8.7,-45.3 C 112.5,288.5 78.11,260.3 52.57,228.5 Z M 231,247.2 c -4.5,4.6 -8.7,9.1 -12.6,13.6 31.6,17.7 54.7,38.7 77.8,70.8 L 310.8,321 c -23.4,-32.4 -48,-55.2 -79.8,-73.8 z m -28.3,32.9 c -3.8,5.2 -7.2,10.3 -10.1,15.3 8.6,3.6 21.7,10.7 33.8,19 15,10.4 28.9,23.4 33.6,32.6 l 16,-8.4 c -7.7,-14.6 -23.2,-27.7 -39.3,-38.9 -11.9,-8.3 -23.8,-15.1 -34,-19.6 z m -20.1,35.5 c -2.5,6.2 -4.1,12.2 -5.1,17.9 4.7,1 12.9,4 20.8,9.1 10.7,7.1 21.5,17.3 27,26.1 l 15.2,-9.6 c -7.6,-12 -19.7,-23.2 -32.3,-31.5 -8.6,-5.6 -17,-10.4 -25.6,-12 z M 52,352.1 c 15.4,34.5 46.57,64.6 95.2,89.5 11.6,-1 20.9,-2.1 28.7,-5.9 6.9,-3.4 13.3,-9 19.9,-20.9 -16.9,-13.7 -28.4,-29.2 -33.8,-46.7 -49.2,10.4 -81.56,0.9 -110,-16 z m 370.1,72.6 c -10.4,-0.1 -43.1,4.2 -75.8,11 -23.5,5 -47.6,11.5 -64.9,18 11.7,-3.1 25.8,-4.3 41.3,-4.7 6.1,-0.2 12.5,-0.2 18.9,-0.1 19.2,0.4 39.2,2.2 57,4.8 12.3,1.9 23.4,3.9 32.9,6.5 6.9,-8.3 12.4,-18.2 12.9,-24.1 0.5,-10.9 -16.7,-11.3 -22.3,-11.4 z m -211.7,0.7 c -9.7,14.2 -19.1,24.7 -34.1,29.5 21.2,8.8 44.9,16.8 71.4,24 8.3,-7.3 16,-17.2 14.3,-27.7 -19.8,-7.8 -37.1,-16.3 -51.6,-25.8 z m 63.3,50.9 -9.2,8.3 c 13.3,4 34.8,9 59.2,8.2 36.3,-1.3 84.3,2.2 114.8,-10.5 -48.8,-12.3 -126.4,-27.6 -164.8,-6 z" />
  </g>
</svg>
